<svg viewBox="90 100 280 270" fill="#77cabf" xmlns="http://www.w3.org/2000/svg">
	<path d="M 223.701 238.464 C 225.022 198.114 199.6 205.934 199.358 170.95 C 199.081 130.962 259.377 126.782 264.559 167.226 C 269.256 203.886 236.363 196.402 240.332 239.296 C 242.981 267.924 243.748 270.253 284.779 298.794 C 321.014 323.999 326.108 299.265 353.943 311.359 C 383.606 324.247 359.706 376.937 327.758 366.588 C 287.583 353.574 321.027 333.136 279.397 307.746 C 235.185 280.781 227.129 281.743 181.496 308.106 C 150.914 325.774 161.955 354.186 139.214 364.855 C 99.401 383.533 76.483 329.453 104.964 313.234 C 126.853 300.769 132.278 322.781 169.178 300.552 C 221.319 269.142 222.668 270.038 223.701 238.464 Z"></path>
</svg>